<svg width="130" height="131" viewBox="0 0 130 131" fill="none" xmlns="http://www.w3.org/2000/svg">
<ellipse cx="2.84375" cy="3.08997" rx="2.84375" ry="2.84375" fill="#6A65FF"/>
<ellipse cx="2.84375" cy="16.9025" rx="2.84375" ry="2.84375" fill="#6A65FF"/>
<ellipse cx="2.84375" cy="30.715" rx="2.84375" ry="2.84375" fill="#6A65FF"/>
<ellipse cx="2.84375" cy="44.5275" rx="2.84375" ry="2.84375" fill="#6A65FF"/>
<ellipse cx="2.84375" cy="58.34" rx="2.84375" ry="2.84375" fill="#6A65FF"/>
<ellipse cx="2.84375" cy="72.1525" rx="2.84375" ry="2.84375" fill="#6A65FF"/>
<ellipse cx="2.84375" cy="85.965" rx="2.84375" ry="2.84375" fill="#6A65FF"/>
<ellipse cx="2.84375" cy="99.7775" rx="2.84375" ry="2.84375" fill="#6A65FF"/>
<ellipse cx="2.84375" cy="113.59" rx="2.84375" ry="2.84375" fill="#6A65FF"/>
<ellipse cx="2.84375" cy="127.402" rx="2.84375" ry="2.84375" fill="#6A65FF"/>
<ellipse cx="16.6562" cy="3.08997" rx="2.84375" ry="2.84375" fill="#6A65FF"/>
<ellipse cx="16.6562" cy="16.9025" rx="2.84375" ry="2.84375" fill="#6A65FF"/>
<ellipse cx="16.6562" cy="30.715" rx="2.84375" ry="2.84375" fill="#6A65FF"/>
<ellipse cx="16.6562" cy="44.5275" rx="2.84375" ry="2.84375" fill="#6A65FF"/>
<ellipse cx="16.6562" cy="58.34" rx="2.84375" ry="2.84375" fill="#6A65FF"/>
<ellipse cx="16.6562" cy="72.1525" rx="2.84375" ry="2.84375" fill="#6A65FF"/>
<ellipse cx="16.6562" cy="85.965" rx="2.84375" ry="2.84375" fill="#6A65FF"/>
<ellipse cx="16.6562" cy="99.7775" rx="2.84375" ry="2.84375" fill="#6A65FF"/>
<ellipse cx="16.6562" cy="113.59" rx="2.84375" ry="2.84375" fill="#6A65FF"/>
<ellipse cx="16.6562" cy="127.402" rx="2.84375" ry="2.84375" fill="#6A65FF"/>
<ellipse cx="30.4688" cy="3.08997" rx="2.84375" ry="2.84375" fill="#6A65FF"/>
<ellipse cx="30.4688" cy="16.9025" rx="2.84375" ry="2.84375" fill="#6A65FF"/>
<ellipse cx="30.4688" cy="30.715" rx="2.84375" ry="2.84375" fill="#6A65FF"/>
<ellipse cx="30.4688" cy="44.5275" rx="2.84375" ry="2.84375" fill="#6A65FF"/>
<ellipse cx="30.4688" cy="58.34" rx="2.84375" ry="2.84375" fill="#6A65FF"/>
<ellipse cx="30.4688" cy="72.1525" rx="2.84375" ry="2.84375" fill="#6A65FF"/>
<ellipse cx="30.4688" cy="85.965" rx="2.84375" ry="2.84375" fill="#6A65FF"/>
<ellipse cx="30.4688" cy="99.7775" rx="2.84375" ry="2.84375" fill="#6A65FF"/>
<ellipse cx="30.4688" cy="113.59" rx="2.84375" ry="2.84375" fill="#6A65FF"/>
<ellipse cx="30.4688" cy="127.402" rx="2.84375" ry="2.84375" fill="#6A65FF"/>
<ellipse cx="44.2812" cy="3.08997" rx="2.84375" ry="2.84375" fill="#6A65FF"/>
<ellipse cx="44.2812" cy="16.9025" rx="2.84375" ry="2.84375" fill="#6A65FF"/>
<ellipse cx="44.2812" cy="30.715" rx="2.84375" ry="2.84375" fill="#6A65FF"/>
<ellipse cx="44.2812" cy="44.5275" rx="2.84375" ry="2.84375" fill="#6A65FF"/>
<ellipse cx="44.2812" cy="58.34" rx="2.84375" ry="2.84375" fill="#6A65FF"/>
<ellipse cx="44.2812" cy="72.1525" rx="2.84375" ry="2.84375" fill="#6A65FF"/>
<ellipse cx="44.2812" cy="85.965" rx="2.84375" ry="2.84375" fill="#6A65FF"/>
<ellipse cx="44.2812" cy="99.7775" rx="2.84375" ry="2.84375" fill="#6A65FF"/>
<ellipse cx="44.2812" cy="113.59" rx="2.84375" ry="2.84375" fill="#6A65FF"/>
<ellipse cx="44.2812" cy="127.402" rx="2.84375" ry="2.84375" fill="#6A65FF"/>
<ellipse cx="58.0938" cy="3.08997" rx="2.84375" ry="2.84375" fill="#6A65FF"/>
<ellipse cx="58.0938" cy="16.9025" rx="2.84375" ry="2.84375" fill="#6A65FF"/>
<ellipse cx="58.0938" cy="30.715" rx="2.84375" ry="2.84375" fill="#6A65FF"/>
<ellipse cx="58.0938" cy="44.5275" rx="2.84375" ry="2.84375" fill="#6A65FF"/>
<ellipse cx="58.0938" cy="58.34" rx="2.84375" ry="2.84375" fill="#6A65FF"/>
<ellipse cx="58.0938" cy="72.1525" rx="2.84375" ry="2.84375" fill="#6A65FF"/>
<ellipse cx="58.0938" cy="85.965" rx="2.84375" ry="2.84375" fill="#6A65FF"/>
<ellipse cx="58.0938" cy="99.7775" rx="2.84375" ry="2.84375" fill="#6A65FF"/>
<ellipse cx="58.0938" cy="113.59" rx="2.84375" ry="2.84375" fill="#6A65FF"/>
<ellipse cx="58.0938" cy="127.402" rx="2.84375" ry="2.84375" fill="#6A65FF"/>
<ellipse cx="71.9062" cy="3.08997" rx="2.84375" ry="2.84375" fill="#6A65FF"/>
<ellipse cx="71.9062" cy="16.9025" rx="2.84375" ry="2.84375" fill="#6A65FF"/>
<ellipse cx="71.9062" cy="30.715" rx="2.84375" ry="2.84375" fill="#6A65FF"/>
<ellipse cx="71.9062" cy="44.5275" rx="2.84375" ry="2.84375" fill="#6A65FF"/>
<ellipse cx="71.9062" cy="58.34" rx="2.84375" ry="2.84375" fill="#6A65FF"/>
<ellipse cx="71.9062" cy="72.1525" rx="2.84375" ry="2.84375" fill="#6A65FF"/>
<ellipse cx="71.9062" cy="85.965" rx="2.84375" ry="2.84375" fill="#6A65FF"/>
<ellipse cx="71.9062" cy="99.7775" rx="2.84375" ry="2.84375" fill="#6A65FF"/>
<ellipse cx="71.9062" cy="113.59" rx="2.84375" ry="2.84375" fill="#6A65FF"/>
<ellipse cx="71.9062" cy="127.402" rx="2.84375" ry="2.84375" fill="#6A65FF"/>
<ellipse cx="85.7187" cy="3.08997" rx="2.84375" ry="2.84375" fill="#6A65FF"/>
<ellipse cx="85.7187" cy="16.9025" rx="2.84375" ry="2.84375" fill="#6A65FF"/>
<ellipse cx="85.7187" cy="30.715" rx="2.84375" ry="2.84375" fill="#6A65FF"/>
<ellipse cx="85.7187" cy="44.5275" rx="2.84375" ry="2.84375" fill="#6A65FF"/>
<ellipse cx="85.7187" cy="58.34" rx="2.84375" ry="2.84375" fill="#6A65FF"/>
<ellipse cx="85.7187" cy="72.1525" rx="2.84375" ry="2.84375" fill="#6A65FF"/>
<ellipse cx="85.7187" cy="85.965" rx="2.84375" ry="2.84375" fill="#6A65FF"/>
<ellipse cx="85.7187" cy="99.7775" rx="2.84375" ry="2.84375" fill="#6A65FF"/>
<ellipse cx="85.7187" cy="113.59" rx="2.84375" ry="2.84375" fill="#6A65FF"/>
<ellipse cx="85.7187" cy="127.402" rx="2.84375" ry="2.84375" fill="#6A65FF"/>
<ellipse cx="99.5313" cy="3.08997" rx="2.84375" ry="2.84375" fill="#6A65FF"/>
<ellipse cx="99.5313" cy="16.9025" rx="2.84375" ry="2.84375" fill="#6A65FF"/>
<ellipse cx="99.5313" cy="30.715" rx="2.84375" ry="2.84375" fill="#6A65FF"/>
<ellipse cx="99.5313" cy="44.5275" rx="2.84375" ry="2.84375" fill="#6A65FF"/>
<ellipse cx="99.5313" cy="58.34" rx="2.84375" ry="2.84375" fill="#6A65FF"/>
<ellipse cx="99.5313" cy="72.1525" rx="2.84375" ry="2.84375" fill="#6A65FF"/>
<ellipse cx="99.5313" cy="85.965" rx="2.84375" ry="2.84375" fill="#6A65FF"/>
<ellipse cx="99.5313" cy="99.7775" rx="2.84375" ry="2.84375" fill="#6A65FF"/>
<ellipse cx="99.5313" cy="113.59" rx="2.84375" ry="2.84375" fill="#6A65FF"/>
<ellipse cx="99.5313" cy="127.402" rx="2.84375" ry="2.84375" fill="#6A65FF"/>
<ellipse cx="113.344" cy="3.08997" rx="2.84375" ry="2.84375" fill="#6A65FF"/>
<ellipse cx="113.344" cy="16.9025" rx="2.84375" ry="2.84375" fill="#6A65FF"/>
<ellipse cx="113.344" cy="30.715" rx="2.84375" ry="2.84375" fill="#6A65FF"/>
<ellipse cx="113.344" cy="44.5275" rx="2.84375" ry="2.84375" fill="#6A65FF"/>
<ellipse cx="113.344" cy="58.34" rx="2.84375" ry="2.84375" fill="#6A65FF"/>
<ellipse cx="113.344" cy="72.1525" rx="2.84375" ry="2.84375" fill="#6A65FF"/>
<ellipse cx="113.344" cy="85.965" rx="2.84375" ry="2.84375" fill="#6A65FF"/>
<ellipse cx="113.344" cy="99.7775" rx="2.84375" ry="2.84375" fill="#6A65FF"/>
<ellipse cx="113.344" cy="113.59" rx="2.84375" ry="2.84375" fill="#6A65FF"/>
<ellipse cx="113.344" cy="127.402" rx="2.84375" ry="2.84375" fill="#6A65FF"/>
<ellipse cx="127.156" cy="3.08997" rx="2.84375" ry="2.84375" fill="#6A65FF"/>
<ellipse cx="127.156" cy="16.9025" rx="2.84375" ry="2.84375" fill="#6A65FF"/>
<ellipse cx="127.156" cy="30.715" rx="2.84375" ry="2.84375" fill="#6A65FF"/>
<ellipse cx="127.156" cy="44.5275" rx="2.84375" ry="2.84375" fill="#6A65FF"/>
<ellipse cx="127.156" cy="58.34" rx="2.84375" ry="2.84375" fill="#6A65FF"/>
<ellipse cx="127.156" cy="72.1525" rx="2.84375" ry="2.84375" fill="#6A65FF"/>
<ellipse cx="127.156" cy="85.965" rx="2.84375" ry="2.84375" fill="#6A65FF"/>
<ellipse cx="127.156" cy="99.7775" rx="2.84375" ry="2.84375" fill="#6A65FF"/>
<ellipse cx="127.156" cy="113.59" rx="2.84375" ry="2.84375" fill="#6A65FF"/>
<ellipse cx="127.156" cy="127.402" rx="2.84375" ry="2.84375" fill="#6A65FF"/>
</svg>
